<?xml version="1.0" encoding="utf-8"?>
<!-- Generator: Adobe Illustrator 25.4.1, SVG Export Plug-In . SVG Version: 6.00 Build 0)  -->
<svg version="1.1" id="Layer_1" xmlns="http://www.w3.org/2000/svg" xmlns:xlink="http://www.w3.org/1999/xlink" x="0px" y="0px"
	 viewBox="0 0 12 12" style="enable-background:new 0 0 12 12;" xml:space="preserve">
<g>
	<path d="M11.5,2.4c-0.3-0.2-0.7-0.5-1-0.7C10,1.4,9.5,1,9,0.7C8.4,0.4,7.8,0.4,7.2,0.9C6.8,1.3,6.4,1.8,5.9,2.2
		C5.7,2.4,5.6,2.8,5.6,3.1c0,0.3,0.2,0.7,0.3,1C6,4.3,6.1,4.4,6.2,4.7c-0.4-0.2-0.7-0.4-1-0.5C4.8,3.9,4.3,3.9,3.9,4.3
		C3.5,4.6,3.1,5,2.7,5.3C2.3,5.7,2.2,6.1,2.4,6.6C2.5,7,2.7,7.4,2.9,7.8C2.7,7.7,2.5,7.5,2.2,7.4C2,7.2,1.9,7.2,1.7,7.5
		C1.3,7.9,0.9,8.4,0.6,8.8C0.3,9.2,0.3,9.2,0.7,9.5C1.3,10,2,10.4,2.6,10.8c0.2,0.2,0.5,0.3,0.8,0.4c0.6,0.2,1.1,0.1,1.5-0.4
		C5.3,10.4,5.7,10,6,9.6C6.3,9.3,6.4,9,6.3,8.7c0-0.3-0.2-0.7-0.3-1C5.9,7.5,5.8,7.4,5.7,7.2c0.4,0.2,0.8,0.4,1.1,0.5
		c0.6,0.2,1.1,0.1,1.5-0.3c0.3-0.3,0.5-0.6,0.8-0.8c0.5-0.4,0.5-0.9,0.4-1.4C9.4,4.8,9.3,4.6,9.1,4.3C9,4.1,9,4,8.9,3.9
		c0.3,0.2,0.7,0.4,1,0.6c0.2,0.1,0.3,0.1,0.5-0.1c0.4-0.5,0.8-1,1.2-1.5C11.7,2.7,11.7,2.5,11.5,2.4z M5.4,9.1
		C5.2,9.4,5,9.5,4.7,9.9C4.4,8.9,3.8,8,3.4,7.3C3.2,7,3.1,6.7,3,6.5c0-0.1-0.1-0.2,0-0.3c0.2-0.4,0.6-0.6,0.8-0.9
		c0.5,0.9,1,1.8,1.6,2.6c0.1,0.2,0.2,0.4,0.2,0.6C5.6,8.7,5.5,8.9,5.4,9.1z M8.5,5.9L8,6.5C7.5,5.6,7,4.6,6.4,3.8
		C6.3,3.6,6.3,3.5,6.2,3.3c0-0.2,0-0.4,0.2-0.6C6.6,2.5,6.8,2.3,7.1,2c0.3,1,1,1.7,1.4,2.5c0.1,0.2,0.2,0.3,0.2,0.4
		C8.9,5.3,8.9,5.6,8.5,5.9z"/>
</g>
</svg>
