<?xml version="1.0" encoding="utf-8"?>
<!-- Generator: Adobe Illustrator 25.4.1, SVG Export Plug-In . SVG Version: 6.00 Build 0)  -->
<svg version="1.1" id="Layer_1" xmlns="http://www.w3.org/2000/svg" xmlns:xlink="http://www.w3.org/1999/xlink" x="0px" y="0px"
	 viewBox="0 0 12 12" style="enable-background:new 0 0 12 12;" xml:space="preserve">
<g>
	<path d="M11.5,2.5c-0.3-0.2-0.7-0.5-1-0.7C10,1.5,9.5,1.1,9,0.8C8.4,0.5,7.8,0.5,7.2,1C6.8,1.4,6.4,1.9,5.9,2.3
		C5.7,2.5,5.5,2.9,5.6,3.2c0.1,0.3,0.2,0.7,0.3,1C6,4.4,6.1,4.5,6.2,4.8c-0.4-0.2-0.7-0.4-1-0.5C4.8,4,4.3,4,3.9,4.4
		C3.5,4.7,3.1,5.1,2.7,5.4C2.3,5.8,2.2,6.2,2.4,6.7c0.1,0.4,0.3,0.8,0.5,1.2C2.7,7.8,2.5,7.6,2.2,7.5C2,7.3,1.9,7.3,1.7,7.6
		C1.3,8,0.9,8.5,0.6,8.9C0.3,9.3,0.3,9.3,0.7,9.6c0.6,0.5,1.3,0.9,1.9,1.3c0.2,0.2,0.5,0.3,0.8,0.4c0.6,0.2,1.1,0.1,1.5-0.4
		c0.4-0.4,0.8-0.8,1.1-1.2c0.3-0.3,0.4-0.6,0.3-0.9C6.3,8.5,6.1,8.1,6,7.8C5.9,7.6,5.8,7.5,5.7,7.3c0.4,0.2,0.8,0.4,1.1,0.5
		C7.4,8,7.9,7.9,8.3,7.5c0.3-0.3,0.5-0.6,0.8-0.8c0.5-0.4,0.5-0.9,0.4-1.4C9.4,4.9,9.3,4.7,9.1,4.4C9,4.2,9,4.1,8.9,4
		c0.3,0.2,0.7,0.4,1,0.6c0.2,0.1,0.3,0.1,0.5-0.1c0.4-0.5,0.8-1,1.2-1.5C11.7,2.8,11.7,2.6,11.5,2.5z M5.8,8.8
		c0,0.2-0.1,0.4-0.2,0.6c-0.2,0.3-0.5,0.5-0.8,0.9c-0.4-1.1-1.1-2-1.6-2.9C3.1,7,3,6.6,2.9,6.3c0-0.1,0-0.2,0.1-0.3
		c0.3-0.3,0.6-0.6,0.8-0.9c0.6,1,1.2,2,1.8,3C5.7,8.3,5.8,8.6,5.8,8.8z M8.9,5.1c0.2,0.5,0.2,0.8-0.2,1.2C8.5,6.5,8.3,6.7,8.1,6.9
		c-0.6-1-1.2-2-1.8-3C6.2,3.7,6.2,3.5,6.1,3.3C6,3.1,6.1,2.8,6.3,2.6c0.3-0.2,0.5-0.5,0.8-0.8c0.3,1.1,1.1,2,1.6,2.9
		C8.8,4.9,8.9,5,8.9,5.1z"/>
</g>
</svg>
