<?xml version="1.0" encoding="utf-8"?>
<!-- Generator: Adobe Illustrator 25.4.1, SVG Export Plug-In . SVG Version: 6.00 Build 0)  -->
<svg version="1.1" id="Layer_1" xmlns="http://www.w3.org/2000/svg" xmlns:xlink="http://www.w3.org/1999/xlink" x="0px" y="0px"
	 viewBox="0 0 12 12" style="enable-background:new 0 0 12 12;" xml:space="preserve">
<style type="text/css">
	.st0{fill:none;}
</style>
<path d="M10,10.3v1H9v-1H3v-1h5.9C8.8,9,8.7,8.6,8.5,8.3h-5v-1h4.2c-0.5-0.5-1-0.8-1.7-1c-1.2-0.3-2.2-1-2.9-2C2.4,3.4,2,2.2,2,1
	V0.8h1v0.5h6v1H3.2c0.1,0.4,0.2,0.7,0.4,1h4.8v1h-4c0.5,0.4,1,0.8,1.6,1l1.3,0.5C8.9,6.6,10,8.4,10,10.3z"/>
<line class="st0" x1="3" y1="10.3" x2="3" y2="10.3"/>
<line class="st0" x1="8.5" y1="8.3" x2="8.5" y2="8.3"/>
</svg>
